<svg xmlns="http://www.w3.org/2000/svg" width="46.042" height="37.928" viewBox="0 0 46.042 37.928">
  <path id="menu" d="M3.771,7C2.793,7,2,8.061,2,9.371s.793,2.371,1.771,2.371h42.5c.978,0,1.771-1.061,1.771-2.37S47.249,7,46.271,7Zm0,16.593C2.793,23.593,2,24.655,2,25.964s.793,2.371,1.771,2.371h42.5c.978,0,1.771-1.061,1.771-2.37s-.793-2.371-1.771-2.371Zm0,16.593C2.793,40.187,2,41.248,2,42.557s.793,2.371,1.771,2.371h42.5c.978,0,1.771-1.061,1.771-2.37s-.793-2.371-1.771-2.371Z" transform="translate(-2 -7)" fill="#fff"/>
</svg>
